<svg width="76" height="76" viewBox="0 0 76 76" fill="none" xmlns="http://www.w3.org/2000/svg">
<path d="M38 18.1336C37.7047 18.1336 37.4216 18.0163 37.2128 17.8075C37.004 17.5987 36.8867 17.3156 36.8867 17.0203V1.11328C36.8867 0.818021 37.004 0.534853 37.2128 0.326073C37.4216 0.117292 37.7047 0 38 0C38.2953 0 38.5784 0.117292 38.7872 0.326073C38.996 0.534853 39.1133 0.818021 39.1133 1.11328V17.0203C39.1133 17.3156 38.996 17.5987 38.7872 17.8075C38.5784 18.0163 38.2953 18.1336 38 18.1336Z" fill="#60615E"/>
<path d="M53.6419 23.8926L52.0222 38.3705C51.9719 38.8206 52.0317 39.2762 52.1966 39.698C52.3615 40.1198 52.6264 40.4953 52.9687 40.7919L63.9768 50.3338C64.3707 50.6752 64.6612 51.12 64.8155 51.6178C64.9697 52.1157 64.9816 52.6468 64.8498 53.1511C64.718 53.6554 64.4477 54.1128 64.0695 54.4715C63.6913 54.8302 63.2203 55.0759 62.7097 55.1809L48.44 58.1144C47.9964 58.2056 47.5816 58.4033 47.2313 58.6905C46.8811 58.9777 46.6059 59.3457 46.4296 59.7628L40.7564 73.181C40.5534 73.6611 40.2202 74.0748 39.7943 74.3754C39.3685 74.6759 38.867 74.8514 38.3466 74.8818C37.8263 74.9122 37.3078 74.7965 36.8498 74.5476C36.3918 74.2988 36.0126 73.9267 35.755 73.4736L28.5555 60.8089C28.3317 60.4151 28.0155 60.0817 27.6342 59.8373C27.2528 59.593 26.8178 59.445 26.3666 59.4061L11.8521 58.157C11.3328 58.1123 10.8363 57.9232 10.4189 57.6111C10.0014 57.299 9.67966 56.8763 9.4899 56.3908C9.30015 55.9054 9.25001 55.3765 9.34514 54.864C9.44028 54.3515 9.67689 53.8759 10.0282 53.4909L19.8484 42.7301C20.1537 42.3955 20.3731 41.9918 20.4877 41.5536C20.6022 41.1154 20.6085 40.6559 20.506 40.2148L17.2086 26.0248C17.0906 25.517 17.117 24.9864 17.2849 24.493C17.4527 23.9995 17.7553 23.5628 18.1584 23.2323C18.5615 22.9018 19.049 22.6907 19.5658 22.6228C20.0826 22.5549 20.6081 22.633 21.0828 22.8482L34.3517 28.8624C34.7641 29.0494 35.2159 29.1333 35.668 29.1068C36.1202 29.0804 36.5591 28.9444 36.9469 28.7106L49.4236 21.1897C49.87 20.9206 50.3828 20.7818 50.904 20.7889C51.4252 20.796 51.934 20.9489 52.3729 21.2301C52.8117 21.5113 53.1632 21.9097 53.3874 22.3803C53.6117 22.8508 53.6998 23.3747 53.6419 23.8928V23.8926Z" fill="#546948"/>
<path d="M65.8514 38.3355C65.7828 38.9804 65.4884 39.5804 65.0201 40.0291L54.5879 50.1971C54.2638 50.5135 54.0214 50.9038 53.8815 51.3346C53.7416 51.7653 53.7085 52.2236 53.7849 52.6701L56.2475 67.0284C56.3126 67.3888 56.305 67.7585 56.2252 68.1159C56.1454 68.4732 55.995 68.8111 55.7829 69.1095C55.5596 69.4222 55.2754 69.6865 54.9474 69.8865C54.6193 70.0865 54.2542 70.2181 53.8739 70.2733C53.2967 70.3541 52.7087 70.2491 52.1951 69.9734L39.3004 63.1943C38.8993 62.9837 38.453 62.8737 38 62.8737C37.547 62.8737 37.1008 62.9837 36.6997 63.1943L23.805 69.9734C23.2603 70.2664 22.6323 70.3658 22.0237 70.2554C21.6463 70.1869 21.2867 70.0427 20.9665 69.8315C20.6464 69.6203 20.3723 69.3464 20.1608 69.0264C19.7733 68.4375 19.6271 67.7221 19.7526 67.0284L22.2152 52.6701C22.2916 52.2236 22.2584 51.7653 22.1185 51.3346C21.9787 50.9038 21.7363 50.5135 21.4121 50.1971L10.98 40.0291C10.6961 39.7576 10.4739 39.4281 10.3284 39.0632C10.1829 38.6982 10.1176 38.3063 10.1368 37.9139C10.1543 37.5295 10.2497 37.1528 10.4174 36.8065C10.585 36.4602 10.8214 36.1516 11.1121 35.8996C11.5137 35.5569 12.0051 35.3364 12.5282 35.2643L26.9444 33.1698C27.3927 33.1048 27.8185 32.9316 28.185 32.6652C28.5514 32.3988 28.8475 32.0473 29.0478 31.6409L35.4944 18.5769C35.7833 17.9805 36.2777 17.5082 36.8868 17.2469C37.239 17.0978 37.6176 17.0209 38 17.0209C38.3825 17.0209 38.7611 17.0978 39.1133 17.2469C39.7224 17.5082 40.2167 17.9805 40.5057 18.5769L46.9523 31.6409C47.1525 32.0473 47.4487 32.3988 47.8151 32.6652C48.1816 32.9316 48.6073 33.1048 49.0557 33.1698L63.4719 35.2643C64.1418 35.3551 64.7545 35.6903 65.1923 36.2054C65.4401 36.4976 65.6262 36.837 65.7395 37.2031C65.8527 37.5691 65.8908 37.9543 65.8514 38.3355Z" fill="#8B0100"/>
<path d="M39.1133 17.2469V42.6728C39.1133 42.9681 38.996 43.2512 38.7873 43.46C38.5785 43.6688 38.2953 43.7861 38 43.7861C37.7048 43.7861 37.4216 43.6688 37.2128 43.46C37.0041 43.2512 36.8868 42.9681 36.8868 42.6728V17.2469C37.239 17.0978 37.6176 17.0209 38 17.0209C38.3825 17.0209 38.7611 17.0978 39.1133 17.2469ZM55.7829 69.1095C55.5596 69.4222 55.2754 69.6865 54.9474 69.8865C54.6193 70.0865 54.2542 70.2181 53.8739 70.2733L39.6358 51.0135C39.549 50.896 39.4861 50.7625 39.4509 50.6206C39.4156 50.4788 39.4087 50.3314 39.4304 50.1869C39.4521 50.0424 39.5021 49.9035 39.5774 49.7783C39.6528 49.6531 39.7521 49.544 39.8696 49.4571C39.9872 49.3703 40.1207 49.3074 40.2625 49.2722C40.4043 49.2369 40.5517 49.23 40.6962 49.2517C40.8407 49.2734 40.9796 49.3234 41.1048 49.3987C41.23 49.4741 41.3391 49.5734 41.426 49.6909L55.7829 69.1095ZM36.3509 51.009L22.0237 70.2554C21.6463 70.1869 21.2867 70.0427 20.9665 69.8315C20.6464 69.6203 20.3723 69.3464 20.1608 69.0264L34.5652 49.679C34.6525 49.5618 34.7621 49.4629 34.8876 49.388C35.0132 49.3131 35.1523 49.2636 35.2969 49.2425C35.4416 49.2213 35.589 49.2289 35.7308 49.2647C35.8725 49.3005 36.0058 49.3639 36.1231 49.4512C36.2403 49.5385 36.3392 49.6481 36.4141 49.7736C36.489 49.8992 36.5385 50.0383 36.5596 50.1829C36.5808 50.3276 36.5732 50.475 36.5374 50.6167C36.5016 50.7585 36.4382 50.8918 36.3509 51.009ZM65.8514 38.3355L38.3682 47.9794C38.2303 48.0278 38.0842 48.0485 37.9383 48.0404C37.7923 48.0323 37.6495 47.9955 37.5177 47.9321C37.386 47.8688 37.2681 47.7802 37.1707 47.6712C37.0732 47.5623 36.9982 47.4353 36.9499 47.2974C36.9015 47.1595 36.8808 47.0134 36.8889 46.8674C36.897 46.7215 36.9338 46.5786 36.9971 46.4469C37.0605 46.3152 37.1491 46.1973 37.258 46.0999C37.367 46.0024 37.494 45.9274 37.6319 45.879L65.1923 36.2054C65.4401 36.4976 65.6262 36.837 65.7395 37.2031C65.8527 37.5691 65.8908 37.9543 65.8514 38.3355ZM35.0476 45.8479C34.9977 45.9854 34.9211 46.1117 34.8222 46.2195C34.7233 46.3273 34.6041 46.4146 34.4714 46.4762C34.3388 46.5379 34.1952 46.5727 34.0491 46.5787C33.9029 46.5848 33.757 46.5619 33.6197 46.5114L10.1368 37.9139C10.1543 37.5295 10.2497 37.1528 10.4174 36.8065C10.585 36.4602 10.8214 36.1516 11.1121 35.8996L34.3841 44.4199C34.6613 44.5215 34.8869 44.7289 35.0113 44.9966C35.1357 45.2644 35.1487 45.5705 35.0476 45.8479Z" fill="#B2061A"/>
<path d="M38 52.9129C41.3045 52.9129 43.9833 50.2341 43.9833 46.9295C43.9833 43.625 41.3045 40.9462 38 40.9462C34.6954 40.9462 32.0166 43.625 32.0166 46.9295C32.0166 50.2341 34.6954 52.9129 38 52.9129Z" fill="#FCE655"/>
<path d="M40.968 41.735C41.6194 42.8745 41.878 44.1966 41.7039 45.4975C41.5298 46.7984 40.9327 48.006 40.0046 48.9341C39.0765 49.8622 37.8689 50.4593 36.5679 50.6334C35.267 50.8075 33.9449 50.549 32.8054 49.8976C33.2617 50.6965 33.8962 51.3794 34.6594 51.8932C35.4226 52.407 36.294 52.7379 37.2059 52.8601C38.1178 52.9823 39.0456 52.8925 39.9172 52.5978C40.7887 52.3031 41.5806 51.8113 42.2312 51.1607C42.8817 50.5102 43.3735 49.7183 43.6682 48.8467C43.963 47.9752 44.0527 47.0474 43.9305 46.1355C43.8083 45.2236 43.4774 44.3522 42.9636 43.589C42.4498 42.8257 41.7669 42.1913 40.968 41.735Z" fill="#FAD900"/>
<path d="M68.6425 16.4059C68.3472 16.4059 68.064 16.2886 67.8552 16.0798C67.6465 15.8711 67.5292 15.5879 67.5292 15.2926V1.11328C67.5292 0.818021 67.6465 0.534853 67.8552 0.326073C68.064 0.117292 68.3472 0 68.6425 0C68.9377 0 69.2209 0.117292 69.4297 0.326073C69.6384 0.534853 69.7557 0.818021 69.7557 1.11328V15.2926C69.7557 15.5879 69.6384 15.8711 69.4297 16.0798C69.2209 16.2886 68.9377 16.4059 68.6425 16.4059Z" fill="#60615E"/>
<path d="M69.1775 13.3987L70.6448 16.3719C70.6877 16.4587 70.7509 16.5337 70.8292 16.5906C70.9075 16.6474 70.9984 16.6844 71.0942 16.6983L74.3752 17.1751C74.4854 17.1911 74.5889 17.2376 74.6741 17.3094C74.7592 17.3812 74.8225 17.4753 74.857 17.5812C74.8914 17.6871 74.8955 17.8005 74.8688 17.9086C74.8421 18.0167 74.7857 18.1152 74.7059 18.1929L72.3317 20.5071C72.2624 20.5746 72.2105 20.6581 72.1806 20.7501C72.1507 20.8422 72.1437 20.9401 72.1601 21.0355L72.7206 24.3032C72.7394 24.413 72.7272 24.5258 72.6852 24.6289C72.6433 24.7321 72.5733 24.8214 72.4832 24.8869C72.3931 24.9523 72.2865 24.9913 72.1755 24.9993C72.0644 25.0073 71.9533 24.9841 71.8548 24.9323L68.9201 23.3894C68.8345 23.3444 68.7392 23.3209 68.6424 23.3209C68.5457 23.3209 68.4503 23.3444 68.3647 23.3894L65.4301 24.9323C65.3315 24.9842 65.2204 25.0074 65.1093 24.9994C64.9982 24.9914 64.8916 24.9525 64.8015 24.887C64.7114 24.8216 64.6414 24.7322 64.5994 24.629C64.5575 24.5258 64.5452 24.413 64.5641 24.3032L65.1246 21.0354C65.141 20.94 65.1339 20.8421 65.104 20.7501C65.0741 20.6581 65.0223 20.5748 64.953 20.5072L62.5789 18.1929C62.4992 18.1152 62.4428 18.0167 62.4161 17.9086C62.3894 17.8005 62.3935 17.6871 62.4279 17.5812C62.4623 17.4753 62.5256 17.3812 62.6108 17.3094C62.6959 17.2376 62.7994 17.1911 62.9096 17.1751L66.1905 16.6983C66.2863 16.6844 66.3772 16.6474 66.4555 16.5905C66.5338 16.5336 66.597 16.4585 66.6398 16.3718L68.1072 13.3987C68.1564 13.2989 68.2327 13.2148 68.3272 13.156C68.4218 13.0972 68.5309 13.066 68.6423 13.066C68.7536 13.066 68.8627 13.0972 68.9573 13.156C69.0519 13.2148 69.1281 13.2989 69.1774 13.3987H69.1775Z" fill="#FCE655"/>
<path d="M7.35767 16.4059C7.06241 16.4059 6.77924 16.2886 6.57046 16.0798C6.36168 15.8711 6.24438 15.5879 6.24438 15.2926V1.11328C6.24438 0.818021 6.36168 0.534853 6.57046 0.326073C6.77924 0.117292 7.06241 0 7.35767 0C7.65293 0 7.93609 0.117292 8.14487 0.326073C8.35366 0.534853 8.47095 0.818021 8.47095 1.11328V15.2926C8.47095 15.5879 8.35366 15.8711 8.14487 16.0798C7.93609 16.2886 7.65293 16.4059 7.35767 16.4059Z" fill="#60615E"/>
<path d="M7.8929 13.3987L9.3602 16.3719C9.40302 16.4587 9.4663 16.5337 9.54457 16.5906C9.62285 16.6474 9.71378 16.6844 9.80952 16.6983L13.0904 17.1751C13.2006 17.1911 13.3041 17.2376 13.3893 17.3094C13.4744 17.3812 13.5378 17.4753 13.5722 17.5812C13.6066 17.6871 13.6107 17.8005 13.584 17.9086C13.5573 18.0167 13.5009 18.1152 13.4212 18.1929L11.047 20.5071C10.9777 20.5746 10.9259 20.6581 10.896 20.7501C10.8661 20.8422 10.859 20.9401 10.8755 21.0355L11.436 24.3032C11.4548 24.413 11.4426 24.5258 11.4006 24.629C11.3587 24.7322 11.2887 24.8216 11.1986 24.887C11.1084 24.9525 11.0018 24.9914 10.8907 24.9994C10.7796 25.0074 10.6685 24.9842 10.57 24.9323L7.63536 23.3894C7.54973 23.3444 7.45444 23.3209 7.35771 23.3209C7.26097 23.3209 7.16568 23.3444 7.08005 23.3894L4.14544 24.9323C4.04688 24.9842 3.93577 25.0074 3.82469 24.9994C3.7136 24.9914 3.60697 24.9525 3.51686 24.887C3.42675 24.8216 3.35676 24.7322 3.3148 24.629C3.27285 24.5258 3.26061 24.413 3.27946 24.3032L3.83996 21.0354C3.85631 20.94 3.84924 20.8421 3.81934 20.7501C3.78945 20.6581 3.73764 20.5748 3.66837 20.5072L1.29411 18.1929C1.21437 18.1152 1.15797 18.0167 1.13128 17.9086C1.1046 17.8005 1.10869 17.6871 1.1431 17.5812C1.17751 17.4753 1.24086 17.3812 1.32599 17.3094C1.41112 17.2376 1.51464 17.1911 1.62483 17.1751L4.90589 16.6983C5.00165 16.6844 5.09259 16.6474 5.17086 16.5905C5.24914 16.5336 5.31241 16.4585 5.35521 16.3718L6.82251 13.3987C6.87179 13.2989 6.94802 13.2148 7.04258 13.156C7.13715 13.0972 7.24628 13.066 7.35763 13.066C7.46898 13.066 7.57811 13.0972 7.67268 13.156C7.76724 13.2148 7.84362 13.2989 7.8929 13.3987Z" fill="#FCE655"/>
<path d="M11.0475 20.5059C10.9782 20.5735 10.9264 20.6569 10.8964 20.749C10.8665 20.841 10.8592 20.9389 10.8753 21.0343L11.4364 24.3029C11.4551 24.4127 11.4427 24.5256 11.4006 24.6287C11.3585 24.7318 11.2884 24.8211 11.1982 24.8864C11.108 24.9518 11.0013 24.9905 10.8902 24.9984C10.7791 25.0062 10.668 24.9828 10.5695 24.9308L7.63489 23.3886C7.59039 23.3663 7.54361 23.3488 7.49536 23.3366C8.56811 22.0671 9.25065 20.5144 9.46067 18.8657C9.55602 18.0516 9.53201 17.228 9.38942 16.4209C9.43481 16.495 9.49599 16.5582 9.56861 16.6059C9.64122 16.6536 9.72348 16.6847 9.8095 16.697L13.09 17.175C13.2002 17.1908 13.3037 17.2371 13.3889 17.3087C13.4741 17.3804 13.5375 17.4745 13.572 17.5803C13.6065 17.6862 13.6106 17.7996 13.5839 17.9076C13.5572 18.0157 13.5008 18.1141 13.421 18.1918L11.0475 20.5059ZM72.3321 20.5109C72.2629 20.5786 72.2111 20.662 72.1811 20.754C72.1511 20.846 72.1438 20.9439 72.1599 21.0394L72.721 24.308C72.7397 24.4178 72.7273 24.5306 72.6852 24.6337C72.6431 24.7369 72.573 24.8261 72.4828 24.8915C72.3926 24.9568 72.2859 24.9956 72.1748 25.0034C72.0637 25.0113 71.9526 24.9879 71.8542 24.9359L68.9195 23.3936C68.875 23.3713 68.8283 23.3539 68.78 23.3416C69.8528 22.0722 70.5353 20.5194 70.7453 18.8707C70.8407 18.0567 70.8167 17.2331 70.6741 16.4259C70.7195 16.5 70.7806 16.5632 70.8533 16.6109C70.9259 16.6587 71.0081 16.6898 71.0942 16.702L74.3746 17.18C74.4848 17.1958 74.5884 17.2421 74.6736 17.3138C74.7588 17.3854 74.8222 17.4795 74.8566 17.5854C74.8911 17.6912 74.8952 17.8046 74.8685 17.9127C74.8418 18.0207 74.7854 18.1192 74.7056 18.1968L72.3321 20.5109Z" fill="#FAD900"/>
</svg>
